<?xml version="1.0" encoding="UTF-8" standalone="no"?>
<svg
   xmlns:dc="http://purl.org/dc/elements/1.1/"
   xmlns:cc="http://creativecommons.org/ns#"
   xmlns:rdf="http://www.w3.org/1999/02/22-rdf-syntax-ns#"
   xmlns:svg="http://www.w3.org/2000/svg"
   xmlns="http://www.w3.org/2000/svg"
   viewBox="0 0 415.16 415.16"
   height="415.16"
   width="415.16"
   xml:space="preserve"
   id="svg2"
   version="1.1"><metadata
     id="metadata8"><rdf:RDF><cc:Work
         rdf:about=""><dc:format>image/svg+xml</dc:format><dc:type
           rdf:resource="http://purl.org/dc/dcmitype/StillImage" /></cc:Work></rdf:RDF></metadata><defs
     id="defs6" /><g
     transform="matrix(1.3333333,0,0,-1.3333333,0,415.16)"
     id="g10"><g
       transform="scale(0.1)"
       id="g12"><path
         id="path14"
         style="fill:#83ce3c;fill-opacity:1;fill-rule:nonzero;stroke:none"
         d="M 87.3867,1364.55 C 154.586,962.879 560.719,585.75 963.816,429.898 565.551,706.629 159.863,1038.23 199.848,1655.36 217.816,1932.87 305.367,2137.19 432.512,2322.35 218.199,2126.08 18.0547,1778.95 87.3867,1364.55 Z M 657.418,832.328 C 225.996,1589.57 930.32,2323.22 1514.51,2543.46 1087.72,2490.7 889.492,2350.49 633.242,2142.59 144.918,1480.21 398.75,962.879 657.418,832.328 Z m 263.5,-190.976 C 1319.8,225.551 2115.02,468.281 2282.32,840.941 1967.68,643.762 1365.73,457.621 920.918,641.352 Z M 2243.57,2652.01 c -432.23,415.65 -1164.8,159.76 -1431.082,-66.05 -266.273,-225.8 -409.468,-404.58 -469.144,-651.2 91.363,112.79 198.808,284.13 295.594,387.53 202.207,294.12 458.112,400.17 867.762,426.64 253.27,16.41 520.92,-21.07 736.87,-96.92 z m 546.78,-403.3 c -150.62,319.34 -386.53,526.01 -721.33,601.13 288.42,-152.46 473.21,-408.46 721.33,-601.13 z M 1789.81,860.281 c 366.52,262.819 835.52,534.939 791.15,1132.499 -134.55,311.06 -297.17,564.42 -709.7,523.5 -277.33,-27.51 -450.2,-84.52 -663.13,-224.91 C 995.18,2151.01 719.617,1890.15 641.836,1531.27 580.84,1250.01 621.586,907.391 804.805,771.102 1145.1,518.141 1757.01,664.582 2080.66,813.82 c 284.52,131.149 491.49,385.7 535.22,736.83 C 2552.7,1451.2 2445.07,1266.83 2279.11,1130.2 2116.57,996.301 1868.3,865 1789.81,860.281 Z m 1039.36,651.559 c 111.36,205.01 60.21,581.38 -100.83,686.43 72.64,-177.99 118.1,-447.99 100.83,-686.43 z M 1844.09,356.172 C 2499.75,446.141 2965.22,868.59 2961,1593.3 2773.33,996.301 2358.62,626.391 1844.09,356.172 Z M 2779.94,2427.85 C 2982.29,2099.89 3100.88,1554.56 2999.81,1178.32 2819.8,508.621 2207.03,251.422 1390.42,282.512 758.43,306.57 290.598,678.102 83.4805,1139.61 c -245.8635,547.72 98.4845,1127.85 422.6755,1388.3 307.949,247.43 641.914,410.41 1155.724,438.22 538.2,29.21 915.7,-210.33 1118.06,-538.28" />
         </g></g></svg>