<?xml version="1.0" standalone="no"?>
<!DOCTYPE svg PUBLIC "-//W3C//DTD SVG 20010904//EN"
 "http://www.w3.org/TR/2001/REC-SVG-20010904/DTD/svg10.dtd">
<svg version="1.0" xmlns="http://www.w3.org/2000/svg"
 width="1200.000000pt" height="627.000000pt" viewBox="0 0 1200.000000 627.000000"
 preserveAspectRatio="xMidYMid meet">

<g transform="translate(0.000000,627.000000) scale(0.100000,-0.100000)"
fill="#000000" stroke="none">
<path d="M1988 5164 c-502 -78 -977 -351 -1292 -744 -122 -152 -123 -176 -11
-252 66 -46 112 -59 141 -40 6 4 48 53 92 108 285 356 734 606 1166 650 84 9
118 33 119 85 3 117 -3 160 -28 184 -28 29 -54 30 -187 9z"/>
<path d="M2419 5151 c-28 -28 -29 -33 -29 -119 0 -122 6 -128 132 -147 482
-72 879 -300 1180 -680 81 -102 102 -106 198 -45 78 50 90 64 90 106 0 68
-253 354 -438 493 -285 215 -613 355 -954 405 -140 21 -145 21 -179 -13z"/>
<path d="M5043 5156 l-28 -24 0 -612 0 -612 24 -19 c34 -28 198 -28 232 0 l24
19 3 607 2 606 -29 30 c-28 28 -34 29 -115 29 -75 0 -88 -3 -113 -24z"/>
<path d="M5735 5155 l-25 -24 0 -604 c0 -724 -14 -657 141 -657 154 0 139 -72
139 650 l0 611 -25 24 c-22 23 -32 25 -115 25 -83 0 -93 -2 -115 -25z"/>
<path d="M9395 5164 c-343 -53 -662 -190 -950 -407 -184 -139 -435 -422 -435
-491 0 -42 12 -56 90 -106 96 -61 117 -57 198 45 301 380 699 609 1177 680
133 19 138 26 133 153 -3 88 -5 95 -31 118 -32 28 -51 28 -182 8z"/>
<path d="M9826 5157 c-19 -19 -26 -37 -26 -64 0 -21 -3 -61 -6 -90 -6 -48 -4
-54 22 -81 25 -24 41 -30 99 -36 415 -42 863 -285 1137 -616 131 -158 123
-150 159 -150 41 0 164 78 181 115 17 37 4 66 -73 165 -238 308 -587 553 -967
680 -136 45 -309 84 -425 95 -72 7 -77 6 -101 -18z"/>
<path d="M1964 4466 c-248 -65 -463 -187 -649 -371 -150 -148 -155 -189 -35
-269 103 -68 119 -65 208 33 86 95 207 188 311 240 76 38 205 84 271 96 19 4
52 11 73 16 54 14 66 48 57 158 -6 71 -10 87 -29 103 -31 25 -94 23 -207 -6z"/>
<path d="M2421 4466 c-19 -20 -23 -39 -28 -117 -5 -90 -4 -95 18 -115 16 -14
54 -28 109 -39 47 -9 126 -32 175 -52 161 -63 271 -139 402 -277 103 -107 116
-110 221 -36 117 82 113 110 -36 259 -187 187 -403 312 -651 377 -123 32 -180
32 -210 0z"/>
<path d="M9365 4465 c-253 -68 -494 -211 -673 -400 -120 -127 -121 -159 -7
-237 103 -71 115 -69 222 42 48 50 116 113 153 140 125 93 291 164 443 190 46
8 72 19 88 36 21 22 22 29 15 116 -5 75 -10 96 -28 115 -29 31 -93 30 -213 -2z"/>
<path d="M9830 4472 c-19 -15 -24 -33 -31 -107 -6 -69 -5 -95 7 -116 15 -30
17 -31 119 -54 239 -53 430 -163 586 -335 90 -100 107 -103 210 -32 69 47 88
75 81 118 -5 32 -109 151 -193 220 -188 155 -362 246 -577 300 -114 29 -172
31 -202 6z"/>
<path d="M457 4020 c-45 -35 -128 -263 -171 -467 -60 -289 -60 -567 0 -856 43
-204 126 -432 171 -467 35 -27 53 -25 126 11 126 63 130 75 72 221 -167 430
-167 896 0 1326 58 146 54 158 -72 221 -73 36 -91 38 -126 11z"/>
<path d="M7869 4025 c-45 -25 -135 -266 -178 -475 -31 -149 -41 -252 -41 -425
0 -292 49 -543 156 -799 28 -68 43 -90 66 -102 37 -19 55 -15 143 33 86 47 98
71 71 141 -124 317 -169 578 -147 854 17 207 57 370 147 600 27 70 15 94 -71
141 -84 46 -111 52 -146 32z"/>
<path d="M11415 4008 c-124 -63 -127 -75 -70 -220 167 -430 167 -890 0 -1323
-47 -122 -48 -142 -9 -176 28 -24 140 -79 162 -79 35 0 70 39 101 115 212 509
212 1091 0 1600 -32 77 -66 115 -103 115 -11 -1 -48 -15 -81 -32z"/>
<path d="M1043 3670 c-58 -54 -123 -341 -123 -545 0 -204 65 -491 123 -545 30
-29 65 -25 148 18 104 52 111 68 77 169 -81 241 -81 475 0 716 34 101 27 117
-77 170 -83 42 -118 46 -148 17z"/>
<path d="M8454 3675 c-23 -15 -53 -84 -78 -175 -74 -266 -59 -617 36 -858 22
-57 49 -82 85 -82 13 0 59 18 103 40 90 45 102 65 81 134 -63 218 -64 225 -64
391 0 166 1 173 64 391 21 69 9 89 -81 134 -86 43 -114 48 -146 25z"/>
<path d="M10809 3653 c-107 -55 -111 -65 -71 -194 42 -139 52 -202 52 -334 0
-132 -10 -195 -52 -334 -40 -129 -36 -139 71 -193 104 -53 139 -49 174 19 48
92 97 350 97 508 0 158 -49 416 -97 508 -35 68 -70 72 -174 20z"/>
<path d="M5043 3656 l-28 -24 -3 -249 c-6 -464 36 -760 149 -1049 41 -105 71
-144 111 -144 24 0 136 56 166 83 30 28 28 60 -13 166 -20 50 -49 147 -65 214
-49 203 -60 324 -60 663 l0 306 -29 29 c-28 28 -34 29 -115 29 -75 0 -88 -3
-113 -24z"/>
<path d="M5735 3655 l-25 -24 0 -288 c0 -366 16 -511 76 -696 26 -79 50 -107
90 -107 27 0 152 55 176 77 24 21 23 75 -1 145 -42 123 -53 229 -58 557 -5
313 -5 314 -29 338 -21 21 -32 23 -114 23 -83 0 -93 -2 -115 -25z"/>
<path d="M1280 2424 c-119 -81 -114 -122 35 -269 187 -185 403 -308 653 -371
115 -29 172 -31 203 -6 19 16 23 32 29 103 9 110 -3 144 -57 158 -21 5 -54 12
-73 16 -66 12 -195 58 -271 96 -104 52 -225 145 -311 240 -89 98 -109 101
-208 33z"/>
<path d="M3097 2384 c-131 -138 -241 -214 -402 -277 -49 -20 -128 -43 -175
-52 -55 -11 -93 -25 -109 -39 -22 -20 -23 -25 -18 -115 5 -78 9 -97 28 -117
30 -32 87 -32 210 0 248 65 464 190 651 377 149 149 153 177 36 259 -105 74
-118 71 -221 -36z"/>
<path d="M6062 2420 c-110 -77 -108 -111 15 -241 175 -185 425 -333 669 -395
117 -29 173 -31 205 -6 19 16 23 32 29 103 8 102 -5 145 -47 155 -356 85 -468
150 -715 415 -32 34 -77 24 -156 -31z"/>
<path d="M8685 2423 c-114 -79 -113 -111 7 -238 181 -191 422 -334 677 -401
192 -50 227 -33 237 114 7 87 6 94 -15 116 -16 17 -42 28 -88 36 -152 26 -318
97 -443 190 -37 27 -105 90 -153 140 -107 111 -119 113 -222 43z"/>
<path d="M10511 2390 c-156 -172 -347 -282 -586 -335 -102 -23 -104 -24 -119
-54 -12 -21 -13 -47 -7 -116 10 -105 26 -125 96 -125 87 0 289 62 430 133 141
70 323 211 416 321 88 104 85 136 -20 209 -103 70 -120 67 -210 -33z"/>
<path d="M685 2083 c-112 -77 -111 -101 11 -253 242 -302 580 -536 952 -660
136 -45 309 -84 425 -95 72 -7 77 -6 101 18 26 26 33 67 29 186 -1 52 -35 76
-119 85 -414 42 -863 285 -1138 616 -43 52 -88 107 -101 123 -36 42 -77 37
-160 -20z"/>
<path d="M3749 2103 c-14 -16 -48 -57 -76 -93 -60 -77 -213 -226 -300 -293
-239 -183 -535 -306 -843 -351 -135 -20 -140 -25 -140 -148 0 -86 1 -91 29
-119 34 -34 39 -34 179 -13 342 50 669 189 954 405 185 139 438 425 438 493 0
42 -12 56 -89 105 -78 50 -116 53 -152 14z"/>
<path d="M5477 2084 c-108 -72 -111 -98 -20 -215 281 -365 665 -622 1103 -738
138 -36 329 -66 364 -57 42 10 55 42 58 144 3 90 2 94 -23 116 -20 17 -45 25
-98 30 -97 10 -292 58 -399 100 -299 115 -555 302 -754 550 -45 56 -86 104
-92 108 -28 19 -74 6 -139 -38z"/>
<path d="M8100 2090 c-78 -50 -90 -64 -90 -106 0 -46 96 -171 239 -315 325
-324 722 -523 1171 -586 112 -15 120 -15 145 1 35 23 45 54 45 146 0 109 -8
116 -135 135 -478 71 -876 300 -1177 680 -81 102 -102 106 -198 45z"/>
<path d="M11154 2103 c-13 -16 -59 -71 -102 -123 -274 -331 -722 -574 -1137
-616 -58 -6 -74 -12 -99 -36 -26 -27 -28 -33 -22 -81 3 -29 6 -69 6 -90 0 -27
7 -45 26 -64 24 -24 29 -25 101 -18 349 33 741 193 1043 426 164 126 408 394
426 466 10 39 -11 69 -83 117 -82 56 -123 60 -159 19z"/>
</g>
</svg>
