<?xml version="1.0" standalone="no"?>
<!DOCTYPE svg PUBLIC "-//W3C//DTD SVG 20010904//EN"
 "http://www.w3.org/TR/2001/REC-SVG-20010904/DTD/svg10.dtd">
<svg version="1.0" xmlns="http://www.w3.org/2000/svg"
 width="1801.000000pt" height="1801.000000pt" viewBox="0 0 1801.000000 1801.000000"
 preserveAspectRatio="xMidYMid meet">

<g transform="translate(0.000000,1801.000000) scale(0.100000,-0.100000)"
fill="#000000" stroke="none">
<path d="M13362 11337 c-69 -22 -114 -77 -204 -249 -47 -90 -439 -833 -871
-1653 -431 -819 -825 -1568 -875 -1664 -88 -169 -90 -173 -105 -150 -8 13
-482 814 -1052 1779 -570 965 -1052 1778 -1070 1807 -97 149 -274 176 -421 64
-95 -72 -126 -201 -76 -314 31 -70 2389 -4054 2429 -4104 77 -96 229 -127 345
-70 64 32 101 72 148 167 44 87 1514 2876 1843 3495 142 269 266 507 273 528
8 22 14 65 14 96 0 178 -205 324 -378 268z"/>
<path d="M7583 11290 c-57 -12 -91 -32 -135 -77 -25 -26 -291 -522 -868 -1618
-458 -869 -928 -1760 -1045 -1980 -311 -585 -289 -538 -289 -620 -1 -119 56
-209 166 -265 110 -54 224 -37 298 46 20 22 92 147 162 279 69 132 493 937
942 1788 448 852 818 1557 821 1568 19 60 -61 192 1751 -2880 436 -738 469
-788 550 -810 108 -30 225 1 303 79 85 85 103 188 52 295 -37 78 -2379 4036
-2423 4095 -58 78 -181 121 -285 100z"/>
<path d="M2890 11247 c-20 -6 -59 -35 -89 -67 -49 -49 -97 -136 -449 -805
-217 -412 -691 -1312 -1055 -2000 -363 -687 -674 -1279 -690 -1313 -54 -115
-34 -236 53 -323 86 -86 -101 -79 2130 -79 2177 0 2024 -4 2103 61 115 95 120
318 10 420 -46 43 -90 60 -181 70 -49 5 -818 9 -1746 9 -1596 0 -1658 1 -1654
18 5 19 1210 2307 1654 3142 279 525 291 551 273 644 -31 163 -205 271 -359
223z"/>
<path d="M14643 11234 c-23 -8 -59 -32 -80 -52 -39 -38 -19 0 -1303 -2437
-292 -555 -610 -1157 -706 -1338 -96 -180 -181 -346 -189 -368 -64 -180 80
-380 274 -382 66 0 133 26 173 70 32 33 -3 -32 988 1848 949 1800 953 1808
965 1812 6 2 110 -164 231 -369 122 -205 600 -1014 1063 -1798 464 -784 855
-1441 871 -1460 15 -19 51 -48 81 -63 49 -26 61 -29 134 -25 98 5 170 40 221
106 68 89 79 184 33 275 -12 23 -369 629 -794 1347 -425 718 -962 1627 -1195
2020 -232 393 -436 730 -453 748 -52 55 -101 75 -192 79 -54 2 -94 -2 -122
-13z"/>
<path d="M235 10 c-4 -6 14 -10 47 -10 38 0 49 3 38 10 -20 13 -77 13 -85 0z"/>
<path d="M945 10 c-4 -6 13 -10 45 -10 32 0 49 4 45 10 -3 6 -24 10 -45 10
-21 0 -42 -4 -45 -10z"/>
<path d="M1395 10 c-13 -5 20 -9 90 -9 70 0 103 4 90 9 -26 11 -154 11 -180 0z"/>
<path d="M2355 10 c-4 -6 12 -10 40 -10 28 0 44 4 40 10 -8 13 -72 13 -80 0z"/>
<path d="M2625 10 c-4 -6 13 -10 45 -10 32 0 49 4 45 10 -3 6 -24 10 -45 10
-21 0 -42 -4 -45 -10z"/>
<path d="M2900 10 c-11 -7 1 -10 40 -10 39 0 51 3 40 10 -19 12 -61 12 -80 0z"/>
<path d="M4870 10 c-11 -7 4 -10 50 -10 46 0 61 3 50 10 -19 13 -81 13 -100 0z"/>
<path d="M10615 10 c-4 -6 12 -10 40 -10 28 0 44 4 40 10 -8 13 -72 13 -80 0z"/>
<path d="M11570 10 c-11 -7 4 -10 50 -10 46 0 61 3 50 10 -19 13 -81 13 -100
0z"/>
<path d="M15120 10 c-11 -7 1 -10 40 -10 39 0 51 3 40 10 -19 12 -61 12 -80 0z"/>
<path d="M16495 10 c-4 -6 12 -10 40 -10 28 0 44 4 40 10 -8 13 -72 13 -80 0z"/>
</g>
</svg>
