<?xml version="1.0" encoding="UTF-8"?><svg id="Layer_2" xmlns="http://www.w3.org/2000/svg" viewBox="0 0 275 262.95"><defs><style>.cls-1{fill:#ee9e49;}.cls-2{fill:#fdb768;}.cls-3{fill:#72b1c5;}.cls-4{fill:#a32d4f;}.cls-5{fill:#b63f62;}.cls-6{fill:#318aa9;}.cls-7{fill:#c95378;}.cls-8{fill:#d27191;}.cls-9{fill:#e0842e;}.cls-10{fill:#1e7767;}.cls-11{fill:#359d8b;}.cls-12{fill:#4ec1ad;}.cls-13{fill:#509db9;}</style></defs><g id="Original"><polygon points="137.19 17.4 137.19 43.23 160.69 34.85 137.19 17.4"/><polygon points="160.69 34.85 151.69 61.85 137.19 43.23 160.69 34.85"/><polygon points="163.69 79.85 151.69 61.85 181.69 26.85 163.69 79.85"/><polygon points="137.19 43.23 122.69 61.85 137.19 61.85 151.69 61.85 137.19 43.23"/><polygon points="137.19 17.4 137.19 43.23 113.69 34.85 137.19 17.4"/><polygon points="113.69 34.85 122.69 61.85 137.19 43.23 113.69 34.85"/><polygon points="137.19 0 92.69 26.85 113.69 34.85 137.19 0"/><polygon points="110.69 79.85 122.69 61.85 113.69 34.85 110.69 79.85"/><polygon points="151.69 61.85 160.69 34.85 181.69 26.85 151.69 61.85"/><polygon points="110.69 79.85 113.69 34.85 92.69 26.85 110.69 79.85"/><polygon points="137.19 0 113.69 34.85 137.19 17.4 137.19 0"/><polygon points="137.19 0 181.69 26.85 160.69 34.85 137.19 0"/><polygon points="137.19 0 160.69 34.85 137.19 17.4 137.19 0"/><polygon points="151.69 61.85 122.69 61.85 163.69 79.85 151.69 61.85"/><polygon points="122.69 61.85 110.69 79.85 163.69 79.85 122.69 61.85"/></g><g id="New"><polygon class="cls-12" points="249.5 78.45 230.5 73.45 236.5 100.45 249.5 78.45"/><polygon class="cls-7" points="259.5 128.45 236.5 100.45 249.5 78.45 259.5 128.45"/><polygon class="cls-8" points="242.5 167.45 259.5 128.45 236.5 100.45 242.5 167.45"/><polygon class="cls-1" points="268 193.95 242.5 167.45 259.5 128.45 268 193.95"/><polygon class="cls-11" points="208 80.95 236.5 100.45 230.5 73.45 208 80.95"/><polygon class="cls-10" points="210 130.95 208 80.95 236.5 100.45 210 130.95"/><polygon class="cls-7" points="242.5 167.45 210 130.95 236.5 100.45 242.5 167.45"/><polygon class="cls-12" points="208 80.95 173 122.95 210 130.95 208 80.95"/><polygon class="cls-6" points="172 93.95 173 122.95 208 80.95 172 93.95"/><polygon class="cls-11" points="171 180.95 210 130.95 173 122.95 171 180.95"/><polygon class="cls-5" points="212 195.95 210 130.95 242.5 167.45 212 195.95"/><polygon class="cls-1" points="249 240.95 242.5 167.45 212 195.95 249 240.95"/><polygon class="cls-2" points="268 193.95 249 240.95 242.5 167.45 268 193.95"/><polygon class="cls-1" points="246 262.95 214 255.95 249 240.95 246 262.95"/><polygon class="cls-9" points="212 195.95 214 255.95 249 240.95 212 195.95"/><polygon class="cls-13" points="249 240.95 275 244.95 268 193.95 249 240.95"/><polygon class="cls-6" points="275 244.95 246 262.95 249 240.95 275 244.95"/><polygon class="cls-13" points="137.5 107.17 173 122.95 172 93.95 137.5 107.17"/><polygon class="cls-6" points="137.5 161.6 173 122.95 137.5 107.17 137.5 161.6"/><polygon class="cls-10" points="171 180.95 137.5 161.6 173 122.95 171 180.95"/><polygon class="cls-11" points="137.5 225.45 171 180.95 137.5 161.6 137.5 225.45"/><polygon class="cls-5" points="168.46 244.95 137.5 225.45 171 180.95 168.46 244.95"/><polygon class="cls-7" points="137.5 261.8 168.46 244.95 137.5 225.45 137.5 261.8"/><polygon class="cls-9" points="166.58 261.8 137.5 261.8 168.46 244.95 166.58 261.8"/><polygon class="cls-8" points="25.5 78.45 44.5 73.45 38.5 100.45 25.5 78.45"/><polygon class="cls-7" points="15.5 128.45 38.5 100.45 25.5 78.45 15.5 128.45"/><polygon class="cls-2" points="32.5 167.45 15.5 128.45 38.5 100.45 32.5 167.45"/><polygon class="cls-1" points="7 193.95 32.5 167.45 15.5 128.45 7 193.95"/><polygon class="cls-7" points="67 80.95 38.5 100.45 44.5 73.45 67 80.95"/><polygon class="cls-9" points="65 130.95 67 80.95 38.5 100.45 65 130.95"/><polygon class="cls-1" points="32.5 167.45 65 130.95 38.5 100.45 32.5 167.45"/><polygon class="cls-1" points="67 80.95 102 122.95 65 130.95 67 80.95"/><polygon class="cls-9" points="103 93.95 102 122.95 67 80.95 103 93.95"/><polygon class="cls-13" points="104 180.95 65 130.95 102 122.95 104 180.95"/><polygon class="cls-6" points="63 195.95 65 130.95 32.5 167.45 63 195.95"/><polygon class="cls-13" points="26 240.95 32.5 167.45 63 195.95 26 240.95"/><polygon class="cls-3" points="7 193.95 26 240.95 32.5 167.45 7 193.95"/><polygon class="cls-10" points="29 262.95 61 255.95 26 240.95 29 262.95"/><polygon class="cls-11" points="63 195.95 61 255.95 26 240.95 63 195.95"/><polygon class="cls-13" points="26 240.95 0 244.95 7 193.95 26 240.95"/><polygon class="cls-6" points="0 244.95 29 262.95 26 240.95 0 244.95"/><polygon class="cls-1" points="137.5 107.17 102 122.95 103 93.95 137.5 107.17"/><polygon class="cls-13" points="137.5 161.6 102 122.95 137.5 107.17 137.5 161.6"/><polygon class="cls-6" points="104 180.95 137.5 161.6 102 122.95 104 180.95"/><polygon class="cls-12" points="137.5 225.45 104 180.95 137.5 161.6 137.5 225.45"/><polygon class="cls-11" points="106.54 244.95 137.5 225.45 104 180.95 106.54 244.95"/><polygon class="cls-5" points="137.5 261.8 106.54 244.95 137.5 225.45 137.5 261.8"/><polygon class="cls-4" points="108.42 261.8 137.5 261.8 106.54 244.95 108.42 261.8"/><polygon class="cls-3" points="137.19 17.4 137.19 43.23 160.69 34.85 137.19 17.4"/><polygon class="cls-11" points="160.69 34.85 151.69 61.85 137.19 43.23 160.69 34.85"/><polygon class="cls-5" points="163.69 79.85 151.69 61.85 181.69 26.85 163.69 79.85"/><polygon class="cls-10" points="137.19 43.23 122.69 61.85 137.19 61.85 151.69 61.85 137.19 43.23"/><polygon class="cls-2" points="137.19 17.4 137.19 43.23 113.69 34.85 137.19 17.4"/><polygon class="cls-11" points="113.69 34.85 122.69 61.85 137.19 43.23 113.69 34.85"/><polygon class="cls-1" points="110.69 79.85 122.69 61.85 113.69 34.85 110.69 79.85"/><polygon class="cls-12" points="151.69 61.85 160.69 34.85 181.69 26.85 151.69 61.85"/><polygon class="cls-2" points="110.69 79.85 113.69 34.85 92.69 26.85 110.69 79.85"/><polygon class="cls-13" points="137.19 0 181.69 26.85 160.69 34.85 137.19 0"/><polygon class="cls-6" points="137.19 0 160.69 34.85 137.19 17.4 137.19 0"/><polygon class="cls-7" points="151.69 61.85 122.69 61.85 163.69 79.85 151.69 61.85"/><polygon class="cls-5" points="122.69 61.85 110.69 79.85 163.69 79.85 122.69 61.85"/><polygon class="cls-13" points="92.69 26.85 137.19 17.4 137.19 0 92.69 26.85"/><polygon class="cls-1" points="92.69 26.85 113.69 34.85 137.19 17.4 92.69 26.85"/></g></svg>